<svg xmlns="http://www.w3.org/2000/svg" xmlns:xlink="http://www.w3.org/1999/xlink" width="521.552" height="402.856" viewBox="0 0 391.164 302.142"><clipPath id="a"><path transform="matrix(1.70984 0 0 -1.70984 .492 305.56)" d="M0 0h229v179H0z"/></clipPath><g clip-path="url(#a)"><path d="M1.804 275.467h387.73V1.364H1.804z" fill="#ebebeb" fill-rule="evenodd"/><path stroke-width=".80770952" stroke-miterlimit="10" fill="none" stroke="#00008f" d="M1.804 275.467h387.73V1.364H1.804z"/><clipPath id="b"><path transform="matrix(.17098 0 0 -.17098 .492 305.56)" d="M0 0h2290v1790H0zm1733.6 1512.64 6.93-4.41-31.49-59.21-20.79 15.12z" fill-rule="evenodd"/></clipPath><g clip-path="url(#b)"><path stroke-width=".80770952" stroke-miterlimit="10" fill="none" stroke="#000" d="m271.599 83.54 25.526-35.649"/></g><path d="m292.71 57.8 3.445-8.51-7 5.925 3.555 2.585z" fill-rule="evenodd"/><path stroke-width=".80770952" stroke-miterlimit="10" fill="none" stroke="#000" d="m292.71 57.8 3.445-8.51-7 5.925 3.555 2.585z"/><path stroke-width="1.61541904" stroke-linejoin="bevel" fill="none" stroke="#00008f" d="m133.524 70.832-2.693 1.614-2.692 1.616-2.585 1.831-2.584 1.94-2.478 2.046-2.477 2.262-2.477 2.26-2.37 2.478-2.262 2.478-2.261 2.693-2.262 2.799-2.154 2.908-2.046 2.909-1.94 3.016-1.83 3.122-1.831 3.231-1.615 3.23-1.508 3.232-1.4 3.232-1.293 3.339-1.077 3.23-.97 3.231-.86 3.232-.647 3.23-.646 3.124-.43 3.124-.217 3.015-.107 3.016v2.908l.107 2.908.324 2.8.43 2.8.539 2.8.646 2.693.862 2.692.97 2.693 1.184 2.693 1.292 2.692 1.4 2.693 1.616 2.693 1.723 2.692 1.94 2.585 2.046 2.585 2.153 2.585 2.37 2.477 2.477 2.477 2.585 2.37 2.8 2.37 2.8 2.26 2.908 2.155 3.016 2.046 3.123 1.939 3.124 1.938 3.23 1.724 3.232 1.723 3.23 1.508 3.34 1.4 3.339 1.292 3.338 1.293 3.34 1.077 3.446.97 3.339.86 3.446.755 3.447.754 3.446.538 3.555.431 3.66.43 3.663.324 3.77.108 3.769.107h7.862l3.985-.215 4.094-.323 4.091-.43 4.201-.432 4.094-.646 4.199-.646 4.093-.862 4.094-.861 4.091-.97 3.986-1.077 3.984-1.077 3.77-1.293 3.77-1.292 3.661-1.292 3.447-1.4 3.447-1.508 3.23-1.508 3.016-1.616 3.016-1.615 2.801-1.616 2.691-1.723 2.478-1.83 2.478-1.724 2.262-1.83 2.475-2.263 2.263-2.261 2.262-2.37 2.046-2.37 1.94-2.584 1.829-2.586 1.723-2.8 1.508-2.8 1.4-2.908 1.401-3.016 1.077-3.015 1.078-3.123.861-3.232.753-3.123.648-3.231.429-3.231.43-3.124.108-3.123.108-3.124v-3.123l-.215-2.908-.216-2.908-.43-2.907-.431-2.8-.645-2.586-.648-2.693-.752-2.476-.754-2.478-.97-2.477-.97-2.37-1.184-2.368-1.185-2.37-1.293-2.37-1.4-2.37-1.507-2.262-1.723-2.26-1.724-2.262-1.939-2.262-2.046-2.263-2.047-2.152-2.26-2.155-2.37-2.046-2.37-2.047-2.478-1.939-2.583-1.831-2.693-1.83-2.693-1.723-2.693-1.616-2.8-1.616-2.8-1.508-2.908-1.4-2.909-1.293-2.907-1.183L244.566 69l-3.016-1.185-3.015-.97-3.016-.969-2.908-.97-3.124-.861-3.122-.754-3.34-.754-3.339-.753-3.447-.648-3.553-.536-3.662-.539-3.663-.43-3.768-.432-3.878-.323-3.876-.108-3.878-.107-3.986-.108-3.984.108-3.878.215-3.878.323-3.876.322-3.77.54-3.662.539-3.661.754-3.555.86-3.446.861-3.34 1.078-3.338 1.077-3.123 1.292-3.124 1.293-2.907 1.4z"/></g><symbol id="c"><path d="M.565.593C.599.647.63.671.681.675c.01.001.018.001.018.019 0 .004-.002.01-.011.01L.609.702.522.704c-.008 0-.018 0-.018-.019 0-.009.009-.01.013-.01C.554.672.558.654.558.642A.094.094 0 0 0 .543.603L.229.105l-.07.539c0 .029.052.031.063.031.015 0 .024 0 .024.019 0 .01-.011.01-.014.01L.178.702H.122C.049.702.019.704.018.704.012.704 0 .704 0 .686 0 .675.007.675.023.675.074.675.077.666.08.641L.16.024C.163.003.163 0 .177 0c.012 0 .017.003.027.019l.361.574z"/></symbol><use xlink:href="#c" transform="matrix(20.44148 0 0 -20.44148 39.617 31.75)"/><symbol id="d"><path d="M.584.716c0 .009-.007.009-.009.009C.571.725.57.724.558.709L.51.649C.477.714.411.725.369.725.242.725.127.609.127.496.127.421.172.377.221.36c.011-.004.07-.02.1-.027C.372.319.385.315.406.293.41.288.43.265.43.218.43.125.344.029.244.029.162.029.071.064.071.176c0 .019.004.043.007.053l.001.01c0 .004-.002.009-.01.009C.06.248.059.246.055.229L.004.024 0 .009C0 0 .008 0 .01 0c.004 0 .005.001.017.016l.046.06C.097.04.149 0 .242 0c.129 0 .247.125.247.25 0 .042-.01.079-.048.116C.42.387.402.392.31.416.243.434.234.437.216.453a.102.102 0 0 0-.03.075c0 .084.085.17.18.17C.464.698.51.638.51.543.51.517.505.49.505.486c0-.009.008-.009.011-.009.009 0 .01.003.014.019l.054.22z"/></symbol><use xlink:href="#d" transform="matrix(20.44148 0 0 -20.44148 337.061 299.204)"/><symbol id="e"><path d="M.179.303a.281.281 0 0 0 .064.088c.026.024.06.04.099.04.04 0 .054-.03.054-.07A.906.906 0 0 0 .335.136C.326.112.321.099.321.081.321.036.352 0 .4 0c.093 0 .128.147.128.153 0 .005-.004.009-.01.009-.009 0-.01-.003-.015-.02C.48.06.442.02.403.02.393.02.377.021.377.053c0 .025.011.055.017.069.02.055.062.167.062.224 0 .06-.035.105-.111.105C.256.451.209.388.191.363.188.42.147.451.103.451.071.451.049.432.032.398A.466.466 0 0 1 0 .298C0 .294.004.289.011.289.019.289.02.29.026.313.042.374.06.431.1.431.123.431.131.415.131.385.131.363.121.324.114.293L.086.185a1.965 1.965 0 0 0-.02-.082.975.975 0 0 1-.018-.078C.048.011.059 0 .074 0 .086 0 .1.006.108.021l.016.06.022.09.033.132z"/></symbol><use xlink:href="#e" transform="matrix(20.44148 0 0 -20.44148 293.269 39.712)"/><symbol id="f"><path d="M.503.681H0V.652h.02c.072 0 .075-.01.075-.047V.076C.095.039.092.029.02.029H0V0c.024.002.113.002.143.002.035 0 .123 0 .152-.002v.029h-.03C.178.029.176.041.176.077v.535c0 .033.002.04.046.04h.107C.467.652.493.598.507.458h.022L.503.681z"/></symbol><use xlink:href="#f" transform="matrix(20.44148 0 0 -20.44148 284.614 218.097)"/><symbol id="g"><path d="M.618.156H.596C.591.13.586.104.578.083.573.067.57.059.512.059H.433a.491.491 0 0 0 .082.166c.047.073.093.146.093.229 0 .138-.132.25-.299.25C.141.704.01.591.01.454.01.372.055.3.102.227A.492.492 0 0 0 .185.059H.106C.048.059.045.067.04.082.032.103.027.132.022.156H0L.032 0h.155c.022 0 .024 0 .024.018a.64.64 0 0 1-.052.209C.13.306.103.379.103.455c0 .154.107.229.206.229.099 0 .206-.075.206-.229A.653.653 0 0 0 .459.23C.442.182.407.09.407.019.407 0 .41 0 .432 0h.154l.032.156z"/></symbol><use xlink:href="#g" transform="matrix(20.44148 0 0 -20.44148 173.839 151.099)"/></svg>